<?xml version="1.0" standalone="no"?><!DOCTYPE svg PUBLIC "-//W3C//DTD SVG 1.1//EN" "http://www.w3.org/Graphics/SVG/1.1/DTD/svg11.dtd"><svg t="1573781648493" class="icon" viewBox="0 0 1024 1024" version="1.1" xmlns="http://www.w3.org/2000/svg" p-id="3160" width="32" height="32" xmlns:xlink="http://www.w3.org/1999/xlink"><defs><style type="text/css"></style></defs><path d="M160 500.224C166.208 311.2704 321.4336 160 512 160s345.792 151.2704 352 340.224a19.2 19.2 0 0 0-6.208-1.024h-116.0576C731.9744 380.9344 632.8448 288 512 288S292.0256 380.9344 282.2656 499.2H166.208a19.2 19.2 0 0 0-6.208 1.024z m1.184 43.1104c1.6 0.4352 3.2896 0.6656 5.024 0.6656h140.8768a19.2 19.2 0 0 0 19.2128-19.2h0.1088a188.864 188.864 0 0 1-0.1088-6.4c0-102.5024 83.136-185.6 185.7024-185.6 102.56 0 185.7024 83.0976 185.7024 185.6 0 2.144-0.0384 4.2752-0.1088 6.4h0.1088a19.2 19.2 0 0 0 19.2128 19.2h140.8768c1.7344 0 3.424-0.2304 5.024-0.6656C846.9504 723.0592 695.9424 864 512 864c-183.9424 0-334.9504-140.9408-350.816-320.6656zM515.2 627.2c65.4272 0 118.464-53.0112 118.464-118.4S580.6272 390.4 515.2 390.4s-118.464 53.0112-118.464 118.4S449.7728 627.2 515.2 627.2z m0.192-44.8c-40.6656 0-73.6384-32.9536-73.6384-73.6S474.7264 435.2 515.392 435.2c40.672 0 73.6448 32.9536 73.6448 73.6S556.064 582.4 515.392 582.4z m0-51.2a22.4064 22.4064 0 1 0-22.4064-22.4c0 12.3712 10.0288 22.4 22.4064 22.4z" fill="#5C646F" p-id="3161"></path></svg>