<?xml version="1.0" standalone="no"?><!DOCTYPE svg PUBLIC "-//W3C//DTD SVG 1.1//EN" "http://www.w3.org/Graphics/SVG/1.1/DTD/svg11.dtd"><svg t="1605505795131" class="icon" viewBox="0 0 1024 1024" version="1.1" xmlns="http://www.w3.org/2000/svg" p-id="1605" xmlns:xlink="http://www.w3.org/1999/xlink" width="48" height="48"><defs><style type="text/css"></style></defs><path d="M815.67 959.56H207.52C127.7 959.56 63 894.86 63 815.04V527.48c0-79.81 64.7-144.52 144.52-144.52h608.15c79.81 0 144.52 64.7 144.52 144.52v287.56c0 79.82-64.71 144.52-144.52 144.52z" fill="#333333" p-id="1606"></path><path d="M657.87 468.21c-10.99 0-19.93-8.87-20-19.87-0.18-28.17-0.06-51.4 0.05-71.89 0.4-74.96 0.01-93.18-12.6-107.04-21.84-24-63.33-23.54-107.24-23.04-51.92 0.58-110.76 1.24-148.9-41.22-30.32-33.75-30.03-64.62-29.73-97.31 0.07-7.49 0.14-15.23-0.12-23.42-0.36-11.04 8.3-20.28 19.34-20.64 11.04-0.33 20.28 8.3 20.64 19.34 0.29 9.02 0.22 17.19 0.14 25.08-0.28 29.94-0.45 48.01 19.49 70.21 26.04 28.99 71.04 28.49 118.69 27.95 50.81-0.57 103.36-1.16 137.28 36.12 12.02 13.22 18.3 28.24 20.99 50.24 2.36 19.34 2.23 45.04 2.02 83.93-0.11 20.38-0.23 43.48-0.05 71.42 0.07 11.05-8.83 20.06-19.87 20.13-0.04 0.01-0.08 0.01-0.13 0.01z" fill="#333333" p-id="1607"></path><path d="M416.46 703.88H158.63c-17.47 0-31.63-14.16-31.63-31.63s14.16-31.63 31.63-31.63h257.84c17.47 0 31.63 14.16 31.63 31.63-0.01 17.47-14.17 31.63-31.64 31.63z" fill="#FFFFFF" p-id="1608"></path><path d="M320.06 542.34v257.84c0 17.47-14.16 31.63-31.63 31.63s-31.63-14.16-31.63-31.63V542.34c0-17.47 14.16-31.63 31.63-31.63 17.47 0.01 31.63 14.17 31.63 31.63zM737.31 830.22c-87.89 0-159.39-71.5-159.39-159.39s71.5-159.39 159.39-159.39 159.39 71.5 159.39 159.39-71.5 159.39-159.39 159.39z m0-278.77c-65.83 0-119.39 53.56-119.39 119.39s53.56 119.39 119.39 119.39 119.39-53.56 119.39-119.4-53.56-119.38-119.39-119.38z" fill="#FFFFFF" p-id="1609"></path></svg>