<?xml version="1.0" standalone="no"?><!DOCTYPE svg PUBLIC "-//W3C//DTD SVG 1.1//EN" "http://www.w3.org/Graphics/SVG/1.1/DTD/svg11.dtd"><svg t="1605499097999" class="icon" viewBox="0 0 1024 1024" version="1.1" xmlns="http://www.w3.org/2000/svg" p-id="1227" xmlns:xlink="http://www.w3.org/1999/xlink" width="48" height="48"><defs><style type="text/css"></style></defs><path d="M721.493333 193.92a65.962667 65.962667 0 1 0 0 131.925333 65.962667 65.962667 0 0 0 0-131.925333z m-131.925333 65.962667a131.882667 131.882667 0 1 1 32.426667 86.613333l-233.130667 116.522667a131.84 131.84 0 0 1 0 55.296l233.130667 116.565333a131.882667 131.882667 0 1 1-29.525334 58.965333l-233.130666-116.608a131.882667 131.882667 0 1 1 0-173.141333l233.130666-116.608a131.84 131.84 0 0 1-2.901333-27.605333zM259.882667 424.746667a65.962667 65.962667 0 1 0 0.042666 131.925333 65.962667 65.962667 0 0 0-0.042666-131.925333z m461.568 230.784a65.92 65.92 0 1 0-0.042667 131.84 65.92 65.92 0 0 0 0.042667-131.84z" fill="#000000" p-id="1228"></path></svg>