<?xml version="1.0" standalone="no"?><!DOCTYPE svg PUBLIC "-//W3C//DTD SVG 1.1//EN" "http://www.w3.org/Graphics/SVG/1.1/DTD/svg11.dtd"><svg t="1605498567843" class="icon" viewBox="0 0 1024 1024" version="1.1" xmlns="http://www.w3.org/2000/svg" p-id="831" width="48" height="48" xmlns:xlink="http://www.w3.org/1999/xlink"><defs><style type="text/css"></style></defs><path d="M503.76 67.35L71.31 439.73c-4.63 3.99-7.3 9.81-7.3 15.94v310.97c0 106.64 86.08 193.09 192.26 192.09H356.9c12.66 0 22.93-10.26 22.93-22.93l0.06-272.9c0-12.66 10.27-22.93 22.93-22.93H623.6c12.67 0 22.93 10.27 22.93 22.93l-0.02 273.89c0 12.67 10.27 22.93 22.93 22.93h98.64c106.18 0 192.26-86.45 192.26-193.09V455.66c0-6.13-2.67-11.95-7.3-15.94L520.61 67.35a12.912 12.912 0 0 0-16.85 0z" fill="#333333" p-id="832"></path></svg>