<?xml version="1.0" standalone="no"?><!DOCTYPE svg PUBLIC "-//W3C//DTD SVG 1.1//EN" "http://www.w3.org/Graphics/SVG/1.1/DTD/svg11.dtd"><svg t="1605498410741" class="icon" viewBox="0 0 1024 1024" version="1.1" xmlns="http://www.w3.org/2000/svg" p-id="901" width="48" height="48" xmlns:xlink="http://www.w3.org/1999/xlink"><defs><style type="text/css"></style></defs><path d="M483.754667 140.16c29.525333-16.213333 65.28-16.213333 94.805333 0l262.186667 144.213333a98.389333 98.389333 0 0 1 50.901333 86.186667v282.88c0 35.925333-19.541333 68.906667-50.901333 86.186667l-262.186667 144.213333c-29.525333 16.213333-65.28 16.213333-94.805333 0l-262.144-144.213333A98.304 98.304 0 0 1 170.666667 653.44v-282.88a98.346667 98.346667 0 0 1 50.944-86.186667l262.144-144.213333z m63.189333 57.429333a32.810667 32.810667 0 0 0-31.573333 0L283.434667 325.12l247.722666 148.608 247.722667-148.608-231.936-127.573333z m279.168 175.658667l-262.186667 157.312v286.506667l245.205334-134.826667a32.768 32.768 0 0 0 16.981333-28.757333V373.248zM498.389333 817.066667v-286.506667L236.202667 373.248v280.234667c0 11.946667 6.485333 22.954667 16.981333 28.757333l245.205333 134.826667z" fill="#000000" p-id="902"></path></svg>